<?xml version="1.0" standalone="no"?>
<!DOCTYPE svg PUBLIC "-//W3C//DTD SVG 20010904//EN"
 "http://www.w3.org/TR/2001/REC-SVG-20010904/DTD/svg10.dtd">
<svg version="1.0" xmlns="http://www.w3.org/2000/svg"
 width="1080.000000pt" height="1080.000000pt" viewBox="0 0 1080.000000 1080.000000"
 preserveAspectRatio="xMidYMid meet">

<g transform="translate(0.000000,1080.000000) scale(0.100000,-0.100000)"
fill="#000000" stroke="none">
<path d="M9750 6510 c-160 -34 -260 -157 -260 -322 l0 -58 -75 0 -75 0 0 -110
0 -110 75 0 75 0 0 -355 0 -355 135 0 135 0 0 355 0 354 118 3 117 3 0 105 0
105 -124 3 -124 3 6 51 c11 86 45 118 128 118 22 0 55 -6 73 -14 l34 -14 36
96 c19 52 33 99 31 103 -20 32 -217 57 -305 39z"/>
<path d="M5120 5855 l0 -655 130 0 130 0 0 50 0 50 44 -34 c76 -58 125 -71
261 -71 118 0 121 1 197 37 101 48 168 114 213 211 74 157 67 355 -18 500 -35
59 -125 140 -190 170 -152 72 -345 58 -459 -34 l-38 -30 0 231 0 230 -135 0
-135 0 0 -655z m628 51 c78 -40 128 -151 120 -261 -6 -71 -26 -115 -76 -167
-100 -105 -287 -82 -366 45 -23 38 -30 62 -34 122 -3 45 0 93 8 120 14 51 68
118 114 142 62 33 169 33 234 -1z"/>
<path d="M6770 6434 c-245 -53 -439 -249 -485 -488 -19 -99 -19 -168 1 -264
64 -315 345 -517 694 -499 127 6 239 39 326 95 63 41 134 104 134 119 0 11
-165 163 -178 163 -4 0 -19 -11 -32 -25 -101 -107 -280 -142 -435 -84 -83 31
-173 121 -205 204 -63 166 -25 344 97 455 147 135 398 130 540 -10 29 -28 34
-30 51 -18 35 24 162 148 162 157 0 20 -109 104 -185 142 -44 22 -111 46 -150
54 -87 18 -249 18 -335 -1z"/>
<path d="M421 6033 c-161 -219 -295 -403 -298 -410 -4 -10 34 -13 166 -15
l172 -3 -151 -203 c-82 -111 -150 -205 -150 -207 0 -3 219 -4 487 -3 l488 3
327 395 c180 217 328 398 328 403 0 4 -98 7 -217 7 l-218 -1 -265 -351 -265
-351 -3 156 -3 157 -175 2 -176 3 222 285 c122 157 233 296 246 310 l24 25 0
-113 0 -112 196 0 196 0 209 202 c115 111 209 205 209 210 0 4 -238 8 -528 8
l-528 0 -293 -397z"/>
<path d="M1973 6418 c2 -7 94 -284 203 -615 l198 -603 152 0 152 0 138 414
c76 228 140 413 142 411 2 -2 63 -187 136 -412 l132 -408 155 -3 154 -2 198
607 c109 335 198 611 197 616 0 4 -60 7 -133 7 l-133 0 -138 -422 c-76 -233
-142 -426 -145 -431 -4 -4 -70 186 -146 423 l-139 430 -132 0 -132 0 -143
-429 c-79 -237 -146 -426 -149 -421 -3 6 -67 199 -141 430 l-134 420 -149 0
c-114 0 -147 -3 -143 -12z"/>
<path d="M10170 6245 l0 -115 -75 0 -75 0 0 -110 0 -110 74 0 75 0 3 -252 c3
-233 5 -256 24 -298 29 -61 78 -108 144 -139 99 -46 313 -40 383 12 18 12 17
17 -19 110 -26 70 -40 94 -48 88 -7 -6 -32 -15 -57 -20 -64 -14 -114 1 -139
42 -18 29 -20 52 -20 244 l0 212 118 3 117 3 0 105 0 105 -117 3 -118 3 0 114
0 115 -135 0 -135 0 0 -115z"/>
<path d="M4308 6144 c-169 -40 -300 -163 -349 -326 -18 -58 -21 -88 -17 -173
4 -92 8 -110 41 -179 85 -180 257 -276 492 -276 155 0 284 42 356 116 l32 33
-50 58 c-89 102 -81 99 -148 59 -66 -40 -117 -50 -220 -44 -55 4 -84 11 -119
32 -53 31 -93 80 -102 124 l-6 32 356 0 356 0 0 78 c0 141 -43 252 -132 341
-118 118 -314 168 -490 125z m230 -210 c47 -19 88 -58 113 -106 36 -71 45 -68
-212 -68 l-231 0 7 28 c16 64 75 127 140 150 45 16 141 14 183 -4z"/>
<path d="M8077 6144 c-72 -17 -108 -36 -158 -81 l-39 -35 0 61 0 61 -130 0
-130 0 0 -475 0 -475 134 0 134 0 4 263 c5 277 8 302 55 365 37 49 95 75 186
80 l77 5 0 123 0 124 -37 -1 c-21 0 -64 -7 -96 -15z"/>
<path d="M8595 6145 c-38 -7 -92 -21 -120 -30 -53 -18 -135 -62 -135 -72 0 -6
88 -173 95 -181 2 -2 23 8 47 22 119 69 318 74 390 9 25 -22 43 -58 53 -100
l7 -33 -109 0 c-298 -1 -423 -42 -489 -162 -23 -44 -28 -65 -28 -123 0 -88 27
-148 91 -205 68 -60 154 -83 286 -78 113 5 163 23 225 81 l32 31 0 -52 0 -52
131 0 130 0 -3 333 c-3 323 -4 334 -27 391 -75 187 -299 273 -576 221z m333
-599 c6 -88 -67 -160 -176 -173 -139 -16 -232 91 -154 177 34 38 83 49 222 47
l105 -2 3 -49z"/>
</g>
</svg>
